<mxfile host="app.diagrams.net" modified="2021-02-28T09:55:06.816Z" agent="5.0 (X11; Linux x86_64) AppleWebKit/537.36 (KHTML, like Gecko) Chrome/88.0.4324.182 Safari/537.36" etag="lP2FsNd8sBPcl3vgf5fl" version="14.4.3" type="github" pages="2">
  <diagram id="A7pjQaFryr8MqwQNL_dq" name="第 2 页">
    <mxGraphModel dx="1350" dy="1943" grid="1" gridSize="10" guides="1" tooltips="1" connect="1" arrows="1" fold="1" page="1" pageScale="1" pageWidth="827" pageHeight="1169" math="1" shadow="0">
      <root>
        <mxCell id="7_zo0wilEMwGahoh7ebq-0" />
        <mxCell id="7_zo0wilEMwGahoh7ebq-1" parent="7_zo0wilEMwGahoh7ebq-0" />
        <mxCell id="z3tSPEcf5R6tPnchSYiB-5" value="" style="rounded=1;whiteSpace=wrap;html=1;fillColor=#dae8fc;strokeColor=#6c8ebf;" parent="7_zo0wilEMwGahoh7ebq-1" vertex="1">
          <mxGeometry x="120" y="78" width="560" height="480" as="geometry" />
        </mxCell>
        <mxCell id="fGxCB024G_ORHXiz4_S--1" value="" style="group" parent="7_zo0wilEMwGahoh7ebq-1" vertex="1" connectable="0">
          <mxGeometry x="316" y="306" width="200" height="218" as="geometry" />
        </mxCell>
        <mxCell id="fGxCB024G_ORHXiz4_S--0" value="handler" style="rounded=0;whiteSpace=wrap;html=1;fillColor=#f8cecc;strokeColor=#b85450;align=left;verticalAlign=top;" parent="fGxCB024G_ORHXiz4_S--1" vertex="1">
          <mxGeometry x="10" y="10" width="190" height="208" as="geometry" />
        </mxCell>
        <mxCell id="8bQkOlgO8Tk98eXD9wkQ-17" value="tcp handler" style="rounded=0;whiteSpace=wrap;html=1;fillColor=#f8cecc;strokeColor=#b85450;align=left;verticalAlign=top;" parent="fGxCB024G_ORHXiz4_S--1" vertex="1">
          <mxGeometry width="190" height="208" as="geometry" />
        </mxCell>
        <mxCell id="z3tSPEcf5R6tPnchSYiB-4" value="" style="edgeStyle=orthogonalEdgeStyle;rounded=0;orthogonalLoop=1;jettySize=auto;html=1;strokeColor=#006658;fontColor=#5C5C5C;exitX=1;exitY=0.5;exitDx=0;exitDy=0;" parent="7_zo0wilEMwGahoh7ebq-1" source="LXmgjdq0Pluga5Q0IuRp-15" target="z3tSPEcf5R6tPnchSYiB-3" edge="1">
          <mxGeometry relative="1" as="geometry" />
        </mxCell>
        <mxCell id="LXmgjdq0Pluga5Q0IuRp-9" value="" style="edgeStyle=orthogonalEdgeStyle;curved=1;sketch=0;orthogonalLoop=1;jettySize=auto;html=1;strokeColor=#6c8ebf;fillColor=#dae8fc;fontColor=#5C5C5C;" parent="7_zo0wilEMwGahoh7ebq-1" source="z3tSPEcf5R6tPnchSYiB-3" target="LXmgjdq0Pluga5Q0IuRp-8" edge="1">
          <mxGeometry relative="1" as="geometry" />
        </mxCell>
        <mxCell id="z3tSPEcf5R6tPnchSYiB-3" value="promethus" style="rounded=1;whiteSpace=wrap;html=1;fillColor=#dae8fc;strokeColor=#6c8ebf;" parent="7_zo0wilEMwGahoh7ebq-1" vertex="1">
          <mxGeometry x="1095" y="229.5" width="120" height="45" as="geometry" />
        </mxCell>
        <mxCell id="z3tSPEcf5R6tPnchSYiB-6" value="DB" style="rounded=0;whiteSpace=wrap;html=1;fillColor=#21C0A5;strokeColor=#006658;fontColor=#5C5C5C;" parent="7_zo0wilEMwGahoh7ebq-1" vertex="1">
          <mxGeometry x="717" y="230" width="70" height="50" as="geometry" />
        </mxCell>
        <mxCell id="8bQkOlgO8Tk98eXD9wkQ-15" value="" style="group" parent="7_zo0wilEMwGahoh7ebq-1" vertex="1" connectable="0">
          <mxGeometry x="414" y="186" width="156" height="120" as="geometry" />
        </mxCell>
        <mxCell id="8bQkOlgO8Tk98eXD9wkQ-3" value="&lt;span style=&quot;color: rgb(51 , 51 , 51) ; font-family: &amp;#34;open sans&amp;#34; , &amp;#34;clear sans&amp;#34; , &amp;#34;helvetica neue&amp;#34; , &amp;#34;helvetica&amp;#34; , &amp;#34;arial&amp;#34; , sans-serif ; font-size: 16px ; font-style: normal ; font-weight: 400 ; letter-spacing: normal ; text-indent: 0px ; text-transform: none ; word-spacing: 0px ; display: inline ; float: none&quot;&gt;controlACKChan&lt;/span&gt;" style="rounded=0;whiteSpace=wrap;html=1;sketch=0;strokeColor=#006658;fillColor=#21C0A5;fontColor=#5C5C5C;labelBackgroundColor=none;" parent="8bQkOlgO8Tk98eXD9wkQ-15" vertex="1">
          <mxGeometry width="156" height="30" as="geometry" />
        </mxCell>
        <mxCell id="8bQkOlgO8Tk98eXD9wkQ-16" value="" style="group" parent="7_zo0wilEMwGahoh7ebq-1" vertex="1" connectable="0">
          <mxGeometry x="170" y="192" width="150" height="120" as="geometry" />
        </mxCell>
        <mxCell id="8bQkOlgO8Tk98eXD9wkQ-1" value="&lt;span style=&quot;color: rgb(51 , 51 , 51) ; font-family: &amp;#34;open sans&amp;#34; , &amp;#34;clear sans&amp;#34; , &amp;#34;helvetica neue&amp;#34; , &amp;#34;helvetica&amp;#34; , &amp;#34;arial&amp;#34; , sans-serif ; font-size: 16px ; font-style: normal ; font-weight: 400 ; letter-spacing: normal ; text-indent: 0px ; text-transform: none ; word-spacing: 0px ; display: inline ; float: none&quot;&gt;controlCMDChan&lt;/span&gt;" style="rounded=0;whiteSpace=wrap;html=1;sketch=0;strokeColor=#006658;fillColor=#21C0A5;fontColor=#5C5C5C;labelBackgroundColor=none;" parent="8bQkOlgO8Tk98eXD9wkQ-16" vertex="1">
          <mxGeometry width="150" height="30" as="geometry" />
        </mxCell>
        <mxCell id="8bQkOlgO8Tk98eXD9wkQ-19" style="edgeStyle=orthogonalEdgeStyle;curved=0;rounded=1;sketch=0;orthogonalLoop=1;jettySize=auto;html=1;strokeColor=#006658;fillColor=#21C0A5;fontColor=#5C5C5C;exitX=0;exitY=0.5;exitDx=0;exitDy=0;" parent="7_zo0wilEMwGahoh7ebq-1" source="fGxCB024G_ORHXiz4_S--11" target="8bQkOlgO8Tk98eXD9wkQ-1" edge="1">
          <mxGeometry relative="1" as="geometry" />
        </mxCell>
        <mxCell id="8bQkOlgO8Tk98eXD9wkQ-18" value="HTTP" style="rounded=1;whiteSpace=wrap;html=1;fillColor=#dae8fc;strokeColor=#6c8ebf;" parent="7_zo0wilEMwGahoh7ebq-1" vertex="1">
          <mxGeometry x="294" y="-10" width="120" height="45" as="geometry" />
        </mxCell>
        <mxCell id="8bQkOlgO8Tk98eXD9wkQ-22" value="" style="endArrow=classic;html=1;fillColor=#21C0A5;fontColor=#5C5C5C;entryX=0.5;entryY=0;entryDx=0;entryDy=0;strokeColor=#FF3333;" parent="7_zo0wilEMwGahoh7ebq-1" source="8bQkOlgO8Tk98eXD9wkQ-1" target="8bQkOlgO8Tk98eXD9wkQ-23" edge="1">
          <mxGeometry width="50" height="50" relative="1" as="geometry">
            <mxPoint x="530" y="280" as="sourcePoint" />
            <mxPoint x="420" y="360" as="targetPoint" />
          </mxGeometry>
        </mxCell>
        <mxCell id="8bQkOlgO8Tk98eXD9wkQ-23" value="CMD" style="rounded=0;whiteSpace=wrap;html=1;labelBackgroundColor=none;sketch=0;strokeColor=#006658;fillColor=#21C0A5;fontColor=#5C5C5C;align=left;" parent="7_zo0wilEMwGahoh7ebq-1" vertex="1">
          <mxGeometry x="348" y="370" width="59" height="40" as="geometry" />
        </mxCell>
        <mxCell id="8bQkOlgO8Tk98eXD9wkQ-24" value="tcp data" style="rounded=0;whiteSpace=wrap;html=1;labelBackgroundColor=none;sketch=0;strokeColor=#006658;fillColor=#21C0A5;fontColor=#5C5C5C;align=left;" parent="7_zo0wilEMwGahoh7ebq-1" vertex="1">
          <mxGeometry x="440.5" y="370" width="59" height="40" as="geometry" />
        </mxCell>
        <mxCell id="8bQkOlgO8Tk98eXD9wkQ-25" value="Client" style="rounded=1;whiteSpace=wrap;html=1;fillColor=#dae8fc;strokeColor=#6c8ebf;" parent="7_zo0wilEMwGahoh7ebq-1" vertex="1">
          <mxGeometry x="348" y="650" width="120" height="45" as="geometry" />
        </mxCell>
        <mxCell id="8bQkOlgO8Tk98eXD9wkQ-26" value="" style="endArrow=classic;html=1;strokeColor=#006658;fillColor=#21C0A5;fontColor=#5C5C5C;exitX=0.5;exitY=0;exitDx=0;exitDy=0;" parent="7_zo0wilEMwGahoh7ebq-1" target="8bQkOlgO8Tk98eXD9wkQ-24" edge="1">
          <mxGeometry width="50" height="50" relative="1" as="geometry">
            <mxPoint x="410" y="650" as="sourcePoint" />
            <mxPoint x="413" y="450" as="targetPoint" />
          </mxGeometry>
        </mxCell>
        <mxCell id="8bQkOlgO8Tk98eXD9wkQ-27" value="" style="endArrow=classic;html=1;strokeColor=#006658;fillColor=#21C0A5;fontColor=#5C5C5C;exitX=0.75;exitY=0;exitDx=0;exitDy=0;entryX=0;entryY=0.5;entryDx=0;entryDy=0;" parent="7_zo0wilEMwGahoh7ebq-1" source="MC_fhqYlfpz5xi4v0BxT-0" target="z3tSPEcf5R6tPnchSYiB-6" edge="1">
          <mxGeometry width="50" height="50" relative="1" as="geometry">
            <mxPoint x="680" y="550" as="sourcePoint" />
            <mxPoint x="730" y="500" as="targetPoint" />
          </mxGeometry>
        </mxCell>
        <mxCell id="8bQkOlgO8Tk98eXD9wkQ-28" value="" style="endArrow=classic;html=1;fillColor=#21C0A5;fontColor=#5C5C5C;exitX=0.5;exitY=1;exitDx=0;exitDy=0;entryX=0.5;entryY=0;entryDx=0;entryDy=0;strokeColor=#FF3333;" parent="7_zo0wilEMwGahoh7ebq-1" source="8bQkOlgO8Tk98eXD9wkQ-23" target="8bQkOlgO8Tk98eXD9wkQ-25" edge="1">
          <mxGeometry width="50" height="50" relative="1" as="geometry">
            <mxPoint x="228" y="225" as="sourcePoint" />
            <mxPoint x="358" y="400" as="targetPoint" />
          </mxGeometry>
        </mxCell>
        <mxCell id="8bQkOlgO8Tk98eXD9wkQ-29" value="" style="endArrow=classic;html=1;strokeColor=#006658;fillColor=#21C0A5;fontColor=#5C5C5C;exitX=0.5;exitY=0;exitDx=0;exitDy=0;" parent="7_zo0wilEMwGahoh7ebq-1" source="8bQkOlgO8Tk98eXD9wkQ-24" target="8bQkOlgO8Tk98eXD9wkQ-3" edge="1">
          <mxGeometry width="50" height="50" relative="1" as="geometry">
            <mxPoint x="611.5" y="400" as="sourcePoint" />
            <mxPoint x="820" y="280" as="targetPoint" />
          </mxGeometry>
        </mxCell>
        <mxCell id="LXmgjdq0Pluga5Q0IuRp-6" value="" style="rounded=1;whiteSpace=wrap;html=1;labelBackgroundColor=none;sketch=0;strokeColor=#006658;fillColor=#21C0A5;fontColor=#5C5C5C;align=left;" parent="7_zo0wilEMwGahoh7ebq-1" vertex="1">
          <mxGeometry x="960" y="60" width="120" height="60" as="geometry" />
        </mxCell>
        <mxCell id="LXmgjdq0Pluga5Q0IuRp-8" value="grafana" style="whiteSpace=wrap;html=1;rounded=1;strokeColor=#6c8ebf;fillColor=#dae8fc;" parent="7_zo0wilEMwGahoh7ebq-1" vertex="1">
          <mxGeometry x="1295" y="222" width="120" height="60" as="geometry" />
        </mxCell>
        <mxCell id="LXmgjdq0Pluga5Q0IuRp-14" value="怎么展示企业的信息" style="shape=partialRectangle;whiteSpace=wrap;html=1;right=0;top=0;bottom=0;fillColor=none;routingCenterX=-0.5;rounded=0;labelBackgroundColor=none;sketch=0;strokeColor=#006658;fontColor=#5C5C5C;align=center;" parent="7_zo0wilEMwGahoh7ebq-1" vertex="1">
          <mxGeometry x="1415" y="222" width="120" height="60" as="geometry" />
        </mxCell>
        <mxCell id="LXmgjdq0Pluga5Q0IuRp-15" value="exporter" style="rounded=0;whiteSpace=wrap;html=1;fillColor=#21C0A5;strokeColor=#006658;fontColor=#5C5C5C;" parent="7_zo0wilEMwGahoh7ebq-1" vertex="1">
          <mxGeometry x="940" y="227.5" width="70" height="50" as="geometry" />
        </mxCell>
        <mxCell id="fnWN1IXqpGysutspdQGa-0" value="exporter" style="rounded=0;whiteSpace=wrap;html=1;fillColor=#21C0A5;strokeColor=#006658;fontColor=#5C5C5C;" parent="7_zo0wilEMwGahoh7ebq-1" vertex="1">
          <mxGeometry x="930" y="232" width="70" height="50" as="geometry" />
        </mxCell>
        <mxCell id="fnWN1IXqpGysutspdQGa-3" value="" style="endArrow=classic;html=1;strokeColor=#006658;fillColor=#21C0A5;fontColor=#5C5C5C;entryX=0.5;entryY=0;entryDx=0;entryDy=0;exitX=0.5;exitY=1;exitDx=0;exitDy=0;dashed=1;" parent="7_zo0wilEMwGahoh7ebq-1" source="fnWN1IXqpGysutspdQGa-0" target="fGxCB024G_ORHXiz4_S--6" edge="1">
          <mxGeometry width="50" height="50" relative="1" as="geometry">
            <mxPoint x="611.4999999999998" y="400" as="sourcePoint" />
            <mxPoint x="940" y="330" as="targetPoint" />
          </mxGeometry>
        </mxCell>
        <mxCell id="fGxCB024G_ORHXiz4_S--2" style="edgeStyle=orthogonalEdgeStyle;curved=0;rounded=1;sketch=0;orthogonalLoop=1;jettySize=auto;html=1;strokeColor=#006658;fillColor=#21C0A5;fontColor=#5C5C5C;exitX=0.5;exitY=0;exitDx=0;exitDy=0;entryX=1;entryY=0.5;entryDx=0;entryDy=0;" parent="7_zo0wilEMwGahoh7ebq-1" source="8bQkOlgO8Tk98eXD9wkQ-3" target="fGxCB024G_ORHXiz4_S--11" edge="1">
          <mxGeometry relative="1" as="geometry">
            <mxPoint x="255" y="35" as="sourcePoint" />
            <mxPoint x="255" y="202" as="targetPoint" />
          </mxGeometry>
        </mxCell>
        <mxCell id="fGxCB024G_ORHXiz4_S--3" value="cache" style="rounded=0;whiteSpace=wrap;html=1;fillColor=#21C0A5;strokeColor=#006658;fontColor=#5C5C5C;" parent="7_zo0wilEMwGahoh7ebq-1" vertex="1">
          <mxGeometry x="717" y="340" width="70" height="50" as="geometry" />
        </mxCell>
        <mxCell id="fGxCB024G_ORHXiz4_S--4" value="" style="endArrow=classic;html=1;strokeColor=#006658;fillColor=#21C0A5;fontColor=#5C5C5C;exitX=1;exitY=0.5;exitDx=0;exitDy=0;entryX=0;entryY=0.5;entryDx=0;entryDy=0;" parent="7_zo0wilEMwGahoh7ebq-1" source="MC_fhqYlfpz5xi4v0BxT-0" target="fGxCB024G_ORHXiz4_S--3" edge="1">
          <mxGeometry width="50" height="50" relative="1" as="geometry">
            <mxPoint x="509.5" y="400" as="sourcePoint" />
            <mxPoint x="727" y="265" as="targetPoint" />
          </mxGeometry>
        </mxCell>
        <mxCell id="fGxCB024G_ORHXiz4_S--6" value="cache proxy" style="rounded=1;whiteSpace=wrap;html=1;fillColor=#dae8fc;strokeColor=#6c8ebf;align=center;verticalAlign=top;" parent="7_zo0wilEMwGahoh7ebq-1" vertex="1">
          <mxGeometry x="860" y="340" width="140" height="130" as="geometry" />
        </mxCell>
        <mxCell id="fGxCB024G_ORHXiz4_S--8" value="http server" style="rounded=0;whiteSpace=wrap;html=1;fillColor=#f8cecc;strokeColor=#b85450;align=left;verticalAlign=top;" parent="7_zo0wilEMwGahoh7ebq-1" vertex="1">
          <mxGeometry x="890" y="390" width="70" height="30" as="geometry" />
        </mxCell>
        <mxCell id="fGxCB024G_ORHXiz4_S--9" value="" style="endArrow=classic;html=1;strokeColor=#006658;fillColor=#21C0A5;fontColor=#5C5C5C;entryX=1;entryY=0.5;entryDx=0;entryDy=0;exitX=0.5;exitY=1;exitDx=0;exitDy=0;" parent="7_zo0wilEMwGahoh7ebq-1" source="fnWN1IXqpGysutspdQGa-0" target="fGxCB024G_ORHXiz4_S--3" edge="1">
          <mxGeometry width="50" height="50" relative="1" as="geometry">
            <mxPoint x="964.4578313253014" y="292" as="sourcePoint" />
            <mxPoint x="940" y="350" as="targetPoint" />
          </mxGeometry>
        </mxCell>
        <mxCell id="fGxCB024G_ORHXiz4_S--10" value="" style="endArrow=classic;html=1;strokeColor=#006658;fillColor=#21C0A5;fontColor=#5C5C5C;exitX=0;exitY=0.5;exitDx=0;exitDy=0;dashed=1;entryX=1;entryY=0.5;entryDx=0;entryDy=0;" parent="7_zo0wilEMwGahoh7ebq-1" source="fGxCB024G_ORHXiz4_S--6" target="fGxCB024G_ORHXiz4_S--3" edge="1">
          <mxGeometry width="50" height="50" relative="1" as="geometry">
            <mxPoint x="975" y="292" as="sourcePoint" />
            <mxPoint x="940" y="350" as="targetPoint" />
          </mxGeometry>
        </mxCell>
        <mxCell id="fGxCB024G_ORHXiz4_S--11" value="HTTP server" style="rounded=1;whiteSpace=wrap;html=1;fillColor=#f8cecc;strokeColor=#b85450;" parent="7_zo0wilEMwGahoh7ebq-1" vertex="1">
          <mxGeometry x="294" y="100" width="120" height="45" as="geometry" />
        </mxCell>
        <mxCell id="fGxCB024G_ORHXiz4_S--12" style="edgeStyle=orthogonalEdgeStyle;curved=0;rounded=1;sketch=0;orthogonalLoop=1;jettySize=auto;html=1;strokeColor=#006658;fillColor=#21C0A5;fontColor=#5C5C5C;exitX=0.5;exitY=0;exitDx=0;exitDy=0;" parent="7_zo0wilEMwGahoh7ebq-1" source="fGxCB024G_ORHXiz4_S--11" target="8bQkOlgO8Tk98eXD9wkQ-18" edge="1">
          <mxGeometry relative="1" as="geometry">
            <mxPoint x="255" y="155" as="sourcePoint" />
            <mxPoint x="255" y="202" as="targetPoint" />
          </mxGeometry>
        </mxCell>
        <mxCell id="MC_fhqYlfpz5xi4v0BxT-0" value="DBManager" style="rounded=1;whiteSpace=wrap;html=1;fillColor=#f8cecc;strokeColor=#b85450;" vertex="1" parent="7_zo0wilEMwGahoh7ebq-1">
          <mxGeometry x="550" y="295" width="120" height="45" as="geometry" />
        </mxCell>
        <mxCell id="MC_fhqYlfpz5xi4v0BxT-1" value="" style="endArrow=classic;html=1;strokeColor=#006658;fillColor=#21C0A5;fontColor=#5C5C5C;exitX=1;exitY=0.5;exitDx=0;exitDy=0;entryX=0;entryY=0.5;entryDx=0;entryDy=0;" edge="1" parent="7_zo0wilEMwGahoh7ebq-1" source="8bQkOlgO8Tk98eXD9wkQ-24" target="MC_fhqYlfpz5xi4v0BxT-0">
          <mxGeometry width="50" height="50" relative="1" as="geometry">
            <mxPoint x="680" y="327.5" as="sourcePoint" />
            <mxPoint x="727" y="375" as="targetPoint" />
          </mxGeometry>
        </mxCell>
        <mxCell id="MC_fhqYlfpz5xi4v0BxT-2" value="CacheManager" style="rounded=1;whiteSpace=wrap;html=1;fillColor=#f8cecc;strokeColor=#b85450;" vertex="1" parent="7_zo0wilEMwGahoh7ebq-1">
          <mxGeometry x="550" y="370" width="120" height="45" as="geometry" />
        </mxCell>
      </root>
    </mxGraphModel>
  </diagram>
  <diagram id="GviNC3OnqdcRVYMmH6Zq" name="第 3 页">
    <mxGraphModel dx="1350" dy="775" grid="1" gridSize="10" guides="1" tooltips="1" connect="1" arrows="1" fold="1" page="1" pageScale="1" pageWidth="827" pageHeight="1169" math="0" shadow="0">
      <root>
        <mxCell id="vHVDVvCEBq_Qjfjckl4d-0" />
        <mxCell id="vHVDVvCEBq_Qjfjckl4d-1" parent="vHVDVvCEBq_Qjfjckl4d-0" />
      </root>
    </mxGraphModel>
  </diagram>
</mxfile>
